<svg xmlns="http://www.w3.org/2000/svg" viewBox="0 0 704 365"><defs><style>.cls-1{fill:#50769c;}.cls-2{fill:none;stroke:#fff;stroke-miterlimit:10;stroke-width:4px;}</style></defs><title>Artboard 1</title><g id="Layer_2" data-name="Layer 2"><rect class="cls-1" x="0.5" y="0.5" width="703" height="364"/><path class="cls-1" d="M703,1V364H1V1H703m1-1H0V365H704V0Z"/></g><g id="Layer_1" data-name="Layer 1"><line class="cls-2" y1="181" x2="704" y2="181"/><line class="cls-2" x1="300" y1="326" x2="300" y2="42"/><line class="cls-2" x1="290" y1="215" x2="290" y2="156"/><line class="cls-2" x1="280" y1="223" x2="280" y2="147"/><line class="cls-2" x1="270" y1="215" x2="270" y2="156"/><line class="cls-2" x1="260" y1="243" x2="260" y2="117"/><line class="cls-2" x1="250" y1="300" x2="250" y2="62"/><line class="cls-2" x1="240" y1="233" x2="240" y2="127"/><line class="cls-2" x1="230" y1="326" x2="230" y2="42"/><line class="cls-2" x1="220" y1="215" x2="220" y2="151"/><line class="cls-2" x1="210" y1="211" x2="210" y2="156"/><line class="cls-2" x1="200" y1="215" x2="200" y2="151"/><line class="cls-2" x1="190" y1="212" x2="190" y2="156"/><line class="cls-2" x1="180" y1="227" x2="180" y2="136"/><line class="cls-2" x1="170" y1="276" x2="170" y2="86"/><line class="cls-2" x1="150" y1="293" x2="150" y2="67"/><line class="cls-2" x1="160" y1="223" x2="160" y2="139"/><line class="cls-2" x1="140" y1="208" x2="140" y2="156"/><line class="cls-2" x1="130" y1="215" x2="130" y2="147"/><line class="cls-2" x1="120" y1="211" x2="120" y2="151"/><line class="cls-2" x1="110" y1="205" x2="110" y2="156"/><line class="cls-2" x1="100" y1="211" x2="100" y2="151"/><line class="cls-2" x1="90" y1="261" x2="90" y2="94"/><line class="cls-2" x1="80" y1="252" x2="80" y2="113"/><line class="cls-2" x1="70" y1="239" x2="70" y2="127"/><line class="cls-2" x1="60" y1="287" x2="60" y2="67"/><line class="cls-2" x1="50" y1="233" x2="50" y2="133"/><line class="cls-2" x1="40" y1="257" x2="40" y2="97"/><line class="cls-2" x1="30" y1="249" x2="30" y2="117"/><line class="cls-2" x1="20" y1="265" x2="20" y2="90"/><line class="cls-2" x1="10" y1="231" x2="10" y2="127"/><line class="cls-2" x1="310" y1="273" x2="310" y2="90"/><line class="cls-2" x1="320" y1="287" x2="320" y2="76"/><line class="cls-2" x1="330" y1="215" x2="330" y2="143"/><line class="cls-2" x1="340" y1="202" x2="340" y2="156"/><line class="cls-2" x1="350" y1="211" x2="350" y2="147"/><line class="cls-2" x1="360" y1="205" x2="360" y2="151"/><line class="cls-2" x1="370" y1="326" x2="370" y2="42"/><line class="cls-2" x1="380" y1="231" x2="380" y2="131"/><line class="cls-2" x1="390" y1="305" x2="390" y2="62"/><line class="cls-2" x1="400" y1="252" x2="400" y2="117"/><line class="cls-2" x1="410" y1="231" x2="410" y2="131"/><line class="cls-2" x1="420" y1="219" x2="420" y2="143"/><line class="cls-2" x1="430" y1="205" x2="430" y2="151"/><line class="cls-2" x1="440" y1="205" x2="440" y2="143"/><line class="cls-2" x1="450" y1="231" x2="450" y2="131"/><line class="cls-2" x1="460" y1="252" x2="460" y2="117"/><line class="cls-2" x1="470" y1="305" x2="470" y2="62"/><line class="cls-2" x1="480" y1="261" x2="480" y2="100"/><line class="cls-2" x1="490" y1="326" x2="490" y2="42"/><line class="cls-2" x1="500" y1="252" x2="500" y2="117"/><line class="cls-2" x1="510" y1="267" x2="510" y2="90"/><line class="cls-2" x1="520" y1="231" x2="520" y2="131"/><line class="cls-2" x1="530" y1="208" x2="530" y2="151"/><line class="cls-2" x1="540" y1="215" x2="540" y2="143"/><line class="cls-2" x1="550" y1="211" x2="550" y2="147"/><line class="cls-2" x1="560" y1="215" x2="560" y2="143"/><line class="cls-2" x1="570" y1="267" x2="570" y2="90"/><line class="cls-2" x1="580" y1="211" x2="580" y2="147"/><line class="cls-2" x1="590" y1="279" x2="590" y2="86"/><line class="cls-2" x1="600" y1="257" x2="600" y2="107"/><line class="cls-2" x1="610" y1="267" x2="610" y2="97"/><line class="cls-2" x1="620" y1="257" x2="620" y2="107"/><line class="cls-2" x1="630" y1="273" x2="630" y2="90"/><line class="cls-2" x1="640" y1="279" x2="640" y2="80"/><line class="cls-2" x1="650" y1="219" x2="650" y2="143"/><line class="cls-2" x1="660" y1="231" x2="660" y2="131"/><line class="cls-2" x1="670" y1="210" x2="670" y2="151"/><line class="cls-2" x1="680" y1="243" x2="680" y2="120"/><line class="cls-2" x1="690" y1="257" x2="690" y2="104"/></g></svg>