<?xml version="1.0" encoding="utf-8"?>
<!-- Generator: Adobe Illustrator 21.0.2, SVG Export Plug-In . SVG Version: 6.00 Build 0)  -->
<svg version="1.1" id="Layer_1" xmlns="http://www.w3.org/2000/svg" xmlns:xlink="http://www.w3.org/1999/xlink" x="0px" y="0px"
	 viewBox="0 0 1366 768" style="enable-background:new 0 0 1366 768;" xml:space="preserve">
<style type="text/css">
	.st0{fill:#EFEB59;}
	.st1{fill:#EF595D;}
	.st2{fill:none;stroke:#EF595D;stroke-width:36;stroke-miterlimit:10;}
	.st3{fill:none;stroke:#EF595D;stroke-width:30;stroke-miterlimit:10;}
</style>
<title>Artboard 1</title>
<g id="background">
	<circle class="st0" cx="643" cy="383" r="372"/>
</g>
<g id="logo">
	<path class="st1" d="M833.3,384.6c0.9,100.8-80.2,183.3-181,184.1s-183.3-80.2-184.1-181c0-0.9,0-1.8,0-2.7"/>
	<path class="st2" d="M808,286.8c0,0-149.8-132.3-303.3,0"/>
	<path class="st2" d="M749.5,348.2c0,0-91.4-76.7-193.7,3.6"/>
	<path class="st2" d="M778.8,319c0,0-120.6-109.6-248.5,0"/>
	<path class="st3" d="M446.6,399.7h36.5c8.1,0,14.6,6.5,14.6,14.6v40.2c0,8.1-6.5,14.6-14.6,14.6h-36.5c-8.1,0-14.6-6.5-14.6-14.6
		v-40.2C432,406.3,438.5,399.7,446.6,399.7z"/>
</g>
</svg>
